PathFileType	3	(X/Y/Z)	F:\ViconData\AntennenMessung\Messung1\Session1\ID07.trc
DataRate	CameraRate	NumFrames	NumMarkers	Units	OrigDataRate	OrigDataStartFrame	OrigNumFrames
120.0	120.0	4	70	mm	120.0	429	856	
Frame#	Time	Ashort			Along			Atop			A4			Bshort			Blong			Btop			B4			Cshort			Clong			Ctop			C4			Dshort			Dlong			Dtop			D4			Eshort			Elong			Etop			E4			Fshort			Flong			Ftop			F4			Gshort			Glong			Gtop			G4			Hshort			Hlong			Htop			H4			I1			I2			I3			I4			I5			WandAshort			WandAlong			WandAtop			WandA4			WandA15			WandBshort			WandB4			WandB5			WandBtop			WandBlong			WandCshort			WandClong			WandCtop			WandC4			WandC5			Acenter			Aantenna			Bcenter			Bantenna			Ccenter			Cantenna			Dcenter			Dantenna			Ecenter			Eantenna			Fcenter			Fantenna			Gcenter			Gantenna			Hcenter			Hantenna			Icenter			Iantenna			
		X1	Y1	Z1	X2	Y2	Z2	X3	Y3	Z3	X4	Y4	Z4	X5	Y5	Z5	X6	Y6	Z6	X7	Y7	Z7	X8	Y8	Z8	X9	Y9	Z9	X10	Y10	Z10	X11	Y11	Z11	X12	Y12	Z12	X13	Y13	Z13	X14	Y14	Z14	X15	Y15	Z15	X16	Y16	Z16	X17	Y17	Z17	X18	Y18	Z18	X19	Y19	Z19	X20	Y20	Z20	X21	Y21	Z21	X22	Y22	Z22	X23	Y23	Z23	X24	Y24	Z24	X25	Y25	Z25	X26	Y26	Z26	X27	Y27	Z27	X28	Y28	Z28	X29	Y29	Z29	X30	Y30	Z30	X31	Y31	Z31	X32	Y32	Z32	X33	Y33	Z33	X34	Y34	Z34	X35	Y35	Z35	X36	Y36	Z36	X37	Y37	Z37	X38	Y38	Z38	X39	Y39	Z39	X40	Y40	Z40	X41	Y41	Z41	X42	Y42	Z42	X43	Y43	Z43	X44	Y44	Z44	X45	Y45	Z45	X46	Y46	Z46	X47	Y47	Z47	X48	Y48	Z48	X49	Y49	Z49	X50	Y50	Z50	X51	Y51	Z51	X52	Y52	Z52	X53	Y53	Z53	X54	Y54	Z54	X55	Y55	Z55	X56	Y56	Z56	X57	Y57	Z57	X58	Y58	Z58	X59	Y59	Z59	X60	Y60	Z60	X61	Y61	Z61	X62	Y62	Z62	X63	Y63	Z63	X64	Y64	Z64	X65	Y65	Z65	X66	Y66	Z66	X67	Y67	Z67	X68	Y68	Z68	X69	Y69	Z69	X70	Y70	Z70	
429	3.5666667	-1038.2476	214.63368	-1644.1403	-1109.3147	203.91728	-1599.5081	-1063.4984	173.00217	-1625.9312	-1054.1642	262.19861	-1634.9651	-1352.672	235.29453	1003.7578	-1281.3678	227.34666	1052.2026	-1322.845	194.18535	1020.6815	-1284.4055	287.95242	1052.6498	814.00726	187.70326	1209.5095	892.43311	178.20656	1179.1243	844.54846	145.26775	1198.375	861.08752	292.29398	1167.3467	1115.9172	210.02809	-1401.8231	1056.3274	194.0784	-1460.1238	1095.1624	162.40884	-1423.7863	1069.7991	238.89323	-1425.9482	-1204.5315	1686.0195	-1563.3251	-1129.1561	1688.2944	-1606.066	-1173.1392	1724.485	-1582.0015	-1133.522	1581.0674	-1603.5476	-1239.6233	1699.0624	1119.3943	-1309.4343	1698.8473	1071.9445	-1270.3788	1736.1213	1096.825	-1245.7244	1592.856	1110.679	988.823	1664.2009	1162.2665	957.28412	1700.5231	1183.7399	922.45386	1662.1111	1214.9199	939.86493	1659.3784	1159.8552	999.25464	1668.4668	-1579.3873	1058.9873	1670.1799	-1518.7009	1025.0967	1708.08	-1551.156	1059.3568	1672.2183	-1585.5413	354.76819	169.13812	20.090174	349.22589	177.18106	103.57967	352.44394	132.51506	61.43235	385.13269	173.55267	57.823185	304.90601	171.96797	53.86338																																														-1068.5648	210.06206	-1625.1	-1073.8461	248.69312	-1624.2339	-1321.5277	231.82304	1024.9175	-1320.1721	270.55496	1029.2765	848.34332	183.54546	1196.2062	852.18481	222.29366	1194.011	1088.8137	202.77365	-1428.3401	1082.7915	241.06299	-1432.6599	-1171.9075	1687.0042	-1581.8241	-1170.6265	1648.0255	-1581.6398	-1271.0747	1698.9653	1098.0171	-1271.8044	1659.9922	1099.2676	953.04675	1705.4028	1186.6249	972.90253	1733.5009	1168.2605	1026.6328	1669.252	-1551.572	1028.1746	1630.2847	-1551.9893	352.28171	172.7464	57.545898	352.12521	211.56537	53.795887
430	3.575	-1038.233	214.59363	-1644.1371	-1109.3011	203.97005	-1599.5607	-1063.4493	173.02721	-1625.967	-1054.1576	262.22284	-1634.9052	-1352.7318	235.23093	1003.8128	-1281.3657	227.34079	1052.1787	-1322.9181	194.12845	1020.8036	-1284.5212	287.85919	1052.692	813.85553	187.73737	1209.4608	892.46429	178.23824	1179.1111	844.57111	145.32253	1198.3264	861.5415	292.63553	1168.9165	1115.9121	210.01196	-1401.8286	1056.3199	194.08481	-1460.1682	1095.2511	162.50122	-1423.7841	1069.8541	238.89636	-1425.9441	-1204.5374	1686.0126	-1563.3214	-1129.1476	1688.3872	-1606.327	-1173.1387	1724.4811	-1581.998	-1133.5717	1581.1348	-1603.6599	-1239.6172	1699.016	1119.3788	-1309.3068	1698.6115	1071.8447	-1270.4595	1736.2167	1096.8585	-1245.728	1592.8821	1110.6776	988.86359	1664.2429	1162.2552	957.32751	1700.4359	1183.8163	922.04034	1662.266	1214.8296	939.82709	1659.3939	1159.8998	999.24463	1668.4677	-1579.3818	1058.8538	1670.0145	-1518.7318	1025.1057	1708.0834	-1551.1469	1059.356	1672.2272	-1585.5426	354.76193	169.0802	20.013657	349.23087	177.19083	103.56255	352.43326	132.48116	61.371067	385.1282	173.54475	57.821213	304.89896	171.95361	53.879795																																														-1068.4829	210.07175	-1625.1632	-1073.7325	248.70772	-1624.325	-1321.558	231.78438	1024.9398	-1320.1587	270.52625	1029.1952	848.34979	183.56905	1196.1431	852.17816	222.3176	1193.931	1088.8887	202.78943	-1428.2841	1082.8419	241.07968	-1432.5609	-1171.9194	1687.0399	-1581.928	-1170.6503	1648.0607	-1581.8553	-1271.0018	1698.8337	1097.9718	-1271.5675	1659.8551	1099.1327	952.77228	1705.6637	1186.9307	972.73096	1733.8481	1168.8119	1026.5627	1669.1765	-1551.5865	1028.0222	1630.2062	-1552.027	352.2832	172.71489	57.455383	352.13843	211.53122	53.677647
431	3.5833333	-1038.2189	214.60281	-1644.1514	-1109.311	203.85329	-1599.5137	-1063.4656	172.98462	-1625.9674	-1054.1716	262.25403	-1634.9258	-1352.7643	235.21242	1003.8766	-1281.3762	227.33125	1052.2629	-1322.8794	194.13547	1020.7907	-1284.6205	287.87408	1052.7941	814.0351	187.74954	1209.4264	892.44983	178.28342	1179.0787	844.49304	145.41644	1198.2469	861.28125	292.3576	1167.7363	1115.8984	209.98134	-1401.8197	1056.3323	194.1058	-1460.1298	1095.1615	162.39136	-1423.8218	1069.797	238.85735	-1425.9564	-1204.538	1686.0161	-1563.3243	-1129.1465	1688.3489	-1606.2869	-1173.1434	1724.4921	-1582.0063	-1133.5552	1581.0885	-1603.5703	-1239.6313	1699.0431	1119.3882	-1309.328	1698.6534	1071.8601	-1270.4955	1736.2614	1096.879	-1245.708	1592.8508	1110.6705	988.86365	1664.2419	1162.2467	957.30853	1700.4506	1183.7728	922.54987	1662.1198	1214.8179	939.87659	1659.3766	1159.8429	999.25531	1668.4655	-1579.3873	1058.8605	1670.0306	-1518.7329	1025.1016	1708.0851	-1551.1564	1059.3679	1672.2416	-1585.5615	354.76923	169.14487	20.044283	349.23029	177.20209	103.56531	352.39859	132.49571	61.428844	385.12317	173.53345	57.824444	304.90488	171.95488	53.867451																																														-1068.5321	210.01926	-1625.1179	-1073.8169	248.64937	-1624.2321	-1321.5844	231.77019	1025.01	-1320.2515	270.50473	1029.3525	848.29858	183.61328	1196.1658	852.15948	222.36423	1194.0546	1088.8158	202.76329	-1428.3311	1082.7966	241.05788	-1432.6084	-1171.9277	1687.025	-1581.9075	-1170.6631	1648.0457	-1581.8048	-1271.0333	1698.8674	1097.9741	-1271.5939	1659.8882	1099.1158	953.0119	1705.3807	1186.7037	972.84027	1733.5399	1168.4037	1026.568	1669.1826	-1551.5936	1028.037	1630.2128	-1552.0317	352.28281	172.76173	57.536724	352.17117	211.58064	53.784485
432	3.5916667	-1038.2396	214.61409	-1644.1686	-1109.33	203.86012	-1599.4877	-1063.4744	172.94913	-1625.9739	-1054.1381	262.18994	-1634.8733	-1352.7836	235.09596	1003.7913	-1281.36	227.40311	1052.1989	-1322.863	194.18088	1020.7531	-1284.4329	287.9252	1052.7072	813.92535	187.66287	1209.4836	893.02032	179.03133	1178.4525	844.59113	145.3616	1198.3453	861.61115	292.69711	1168.9958	1115.9235	210.00897	-1401.8319	1056.3082	194.10152	-1460.1412	1095.1964	162.37485	-1423.8311	1069.795	238.86458	-1425.9055	-1204.5358	1686.0109	-1563.3041	-1129.1443	1688.2974	-1606.0729	-1173.1405	1724.4841	-1581.9916	-1133.6017	1581.1599	-1603.6261	-1239.5841	1698.9872	1119.3667	-1309.4683	1698.9072	1071.9635	-1270.4012	1736.1484	1096.8392	-1245.6898	1592.8723	1110.6671	988.86017	1664.2329	1162.2367	957.28528	1700.5408	1183.7938	922.05206	1662.2565	1214.7982	939.83795	1659.4028	1159.8555	999.24634	1668.4882	-1579.4171	1058.8633	1670.0125	-1518.7405	1025.0892	1708.0912	-1551.1625	1059.3519	1672.2397	-1585.5713	354.798	169.19229	20.026678	349.24457	177.18896	103.59016	352.43707	132.40889	61.541393	385.12827	173.5576	57.81823	304.59183	172.5466	53.685192																																														-1068.547	210.0294	-1625.12	-1073.8315	248.65947	-1624.2306	-1321.6313	231.74063	1024.9048	-1320.361	270.48395	1029.1875	847.93713	183.9512	1196.1398	851.30054	222.74258	1193.9227	1088.8236	202.77777	-1428.338	1082.7838	241.06975	-1432.6095	-1171.9039	1687.0005	-1581.8157	-1170.618	1648.0221	-1581.6328	-1271.1263	1698.951	1097.9711	-1271.8865	1659.9764	1099.1571	952.84613	1705.6453	1186.8245	972.82513	1733.7955	1168.6752	1026.554	1669.1864	-1551.624	1028.0211	1630.2166	-1552.0864	352.29648	172.79433	57.667328	352.16129	211.61589	53.943283
